<svg width="20" height="20" viewBox="0 0 20 20" fill="none" xmlns="http://www.w3.org/2000/svg">
<g clip-path="url(#clip0_102_10)">
<path d="M18.3345 7.51913C18.6136 7.79815 19.0332 7.88159 19.3978 7.73062C19.7623 7.57961 20 7.22386 20 6.82927V0.97561C20 0.43679 19.5632 0 19.0244 0H13.1707C12.7761 0 12.4204 0.237698 12.2694 0.602264C12.1183 0.96682 12.2019 1.38645 12.4809 1.66547L14.3729 3.5575L7.88853 10.0419C7.50753 10.4229 7.50753 11.0406 7.88853 11.4216L8.57834 12.1114C8.95942 12.4925 9.57708 12.4925 9.95815 12.1114L16.4425 5.62709L18.3345 7.51913Z" fill="black"/>
<path d="M2.92683 5.85378C2.92683 5.58438 3.14523 5.36598 3.41463 5.36598H8.35366C8.89249 5.36598 9.32927 4.92918 9.32927 4.39037V3.41476C9.32927 2.87594 8.89249 2.43915 8.35366 2.43915H3.41463C1.52878 2.43915 0 3.96793 0 5.85378V16.5855C0 18.4714 1.52878 20.0002 3.41463 20.0002H14.1463C16.0322 20.0002 17.561 18.4714 17.561 16.5855V11.6465C17.561 11.1077 17.1242 10.6709 16.5854 10.6709H15.6098C15.0709 10.6709 14.6341 11.1077 14.6341 11.6465V16.5855C14.6341 16.8549 14.4157 17.0733 14.1463 17.0733H3.41463C3.14523 17.0733 2.92683 16.8549 2.92683 16.5855V5.85378Z" fill="black"/>
</g>
<defs>
<clipPath id="clip0_102_10">
<rect width="20" height="20" fill="white"/>
</clipPath>
</defs>
</svg>
