<svg width="605" height="762" viewBox="0 0 605 762" fill="none" xmlns="http://www.w3.org/2000/svg">
<path d="M426.864 415.487L300.547 470.379L174.522 415.487V303.367L285.669 351.544C295.296 355.631 306.09 355.631 315.717 351.544L426.864 303.367V415.487Z" fill="#FFC700"/>
<path d="M426.864 415.487L300.547 470.379L174.522 415.487V303.367L285.669 351.544C295.296 355.631 306.09 355.631 315.717 351.544L426.864 303.367V415.487Z" fill="url(#paint0_linear)"/>
<path fill-rule="evenodd" clip-rule="evenodd" d="M166.517 291.164C170.623 288.464 175.811 288.016 180.32 289.97L291.411 338.122C297.371 340.639 304.016 340.639 309.976 338.122L421.068 289.97C425.576 288.016 430.764 288.464 434.871 291.164C438.978 293.863 441.451 298.449 441.451 303.367V415.486C441.451 421.301 438.003 426.562 432.674 428.877L306.357 483.769C302.647 485.381 298.436 485.38 294.727 483.765L168.703 428.873C163.379 426.554 159.937 421.297 159.937 415.486V303.367C159.937 298.449 162.41 293.863 166.517 291.164ZM189.109 325.598V405.918L300.555 454.46L412.278 405.909V325.598L321.514 364.94L321.414 364.982C308.147 370.616 293.241 370.616 279.973 364.982L279.873 364.94L189.109 325.598Z" fill="#FFC700"/>
<path fill-rule="evenodd" clip-rule="evenodd" d="M166.517 291.164C170.623 288.464 175.811 288.016 180.32 289.97L291.411 338.122C297.371 340.639 304.016 340.639 309.976 338.122L421.068 289.97C425.576 288.016 430.764 288.464 434.871 291.164C438.978 293.863 441.451 298.449 441.451 303.367V415.486C441.451 421.301 438.003 426.562 432.674 428.877L306.357 483.769C302.647 485.381 298.436 485.38 294.727 483.765L168.703 428.873C163.379 426.554 159.937 421.297 159.937 415.486V303.367C159.937 298.449 162.41 293.863 166.517 291.164ZM189.109 325.598V405.918L300.555 454.46L412.278 405.909V325.598L321.514 364.94L321.414 364.982C308.147 370.616 293.241 370.616 279.973 364.982L279.873 364.94L189.109 325.598Z" fill="url(#paint1_linear)"/>
<path fill-rule="evenodd" clip-rule="evenodd" d="M467.707 336.652C467.707 329.372 460.234 324.432 453.847 327.055L453.757 327.091L309.734 383.992C303.876 386.47 297.222 386.47 291.364 383.992L147.375 327.105C140.707 324.558 133.391 329.601 133.391 336.652V438.553C133.391 442.57 135.682 446.157 139.575 447.947L296.467 516.537C296.522 516.561 296.577 516.586 296.632 516.612C299.053 517.743 302.045 517.743 304.466 516.612C304.489 516.601 304.512 516.591 304.535 516.58C304.567 516.566 304.599 516.551 304.631 516.537L461.523 447.947C465.416 446.157 467.707 442.57 467.707 438.553V336.652ZM448.36 313.528C464.713 306.853 482.293 319.423 482.293 336.652V438.553C482.293 448.536 476.433 457.2 467.516 461.257L467.418 461.301L310.545 529.883C304.263 532.784 296.835 532.784 290.553 529.883L133.681 461.301L133.582 461.257C124.665 457.2 118.805 448.536 118.805 438.553V336.652C118.805 319.187 136.557 307.299 152.637 313.489L152.697 313.512L296.809 370.448C296.874 370.474 296.939 370.5 297.004 370.528C299.254 371.493 301.844 371.493 304.094 370.528C304.159 370.5 304.224 370.474 304.289 370.448L448.36 313.528Z" fill="#FFC700"/>
<path fill-rule="evenodd" clip-rule="evenodd" d="M467.707 336.652C467.707 329.372 460.234 324.432 453.847 327.055L453.757 327.091L309.734 383.992C303.876 386.47 297.222 386.47 291.364 383.992L147.375 327.105C140.707 324.558 133.391 329.601 133.391 336.652V438.553C133.391 442.57 135.682 446.157 139.575 447.947L296.467 516.537C296.522 516.561 296.577 516.586 296.632 516.612C299.053 517.743 302.045 517.743 304.466 516.612C304.489 516.601 304.512 516.591 304.535 516.58C304.567 516.566 304.599 516.551 304.631 516.537L461.523 447.947C465.416 446.157 467.707 442.57 467.707 438.553V336.652ZM448.36 313.528C464.713 306.853 482.293 319.423 482.293 336.652V438.553C482.293 448.536 476.433 457.2 467.516 461.257L467.418 461.301L310.545 529.883C304.263 532.784 296.835 532.784 290.553 529.883L133.681 461.301L133.582 461.257C124.665 457.2 118.805 448.536 118.805 438.553V336.652C118.805 319.187 136.557 307.299 152.637 313.489L152.697 313.512L296.809 370.448C296.874 370.474 296.939 370.5 297.004 370.528C299.254 371.493 301.844 371.493 304.094 370.528C304.159 370.5 304.224 370.474 304.289 370.448L448.36 313.528Z" fill="url(#paint2_linear)"/>
<path d="M575.645 173.436H561.934V225.408H575.645V173.436Z" fill="#FFC700"/>
<path d="M575.645 173.436H561.934V225.408H575.645V173.436Z" fill="url(#paint3_linear)"/>
<path d="M587.9 313.294C588.483 320.009 583.232 325.849 576.522 325.849H568.646H560.769C554.06 325.849 548.809 320.009 549.392 313.294C550.267 303.95 551.434 291.979 552.309 286.14C553.184 279.716 555.81 265.409 557.56 256.066C558.435 250.518 563.395 246.723 568.937 246.723C574.48 246.723 579.148 250.81 580.315 256.066C582.065 265.701 584.691 280.008 585.566 286.14C585.857 291.687 587.024 303.95 587.9 313.294Z" fill="#FFC700"/>
<path d="M587.9 313.294C588.483 320.009 583.232 325.849 576.522 325.849H568.646H560.769C554.06 325.849 548.809 320.009 549.392 313.294C550.267 303.95 551.434 291.979 552.309 286.14C553.184 279.716 555.81 265.409 557.56 256.066C558.435 250.518 563.395 246.723 568.937 246.723C574.48 246.723 579.148 250.81 580.315 256.066C582.065 265.701 584.691 280.008 585.566 286.14C585.857 291.687 587.024 303.95 587.9 313.294Z" fill="url(#paint4_linear)"/>
<path d="M568.646 252.854C577.507 252.854 584.691 245.664 584.691 236.795C584.691 227.926 577.507 220.736 568.646 220.736C559.785 220.736 552.601 227.926 552.601 236.795C552.601 245.664 559.785 252.854 568.646 252.854Z" fill="#FFC700"/>
<path d="M568.646 252.854C577.507 252.854 584.691 245.664 584.691 236.795C584.691 227.926 577.507 220.736 568.646 220.736C559.785 220.736 552.601 227.926 552.601 236.795C552.601 245.664 559.785 252.854 568.646 252.854Z" fill="url(#paint5_linear)"/>
<path d="M582.646 117.668L532.762 95.1859C499.505 80.2951 460.414 80.2951 426.866 95.4779L383.69 115.04C382.815 115.332 382.232 115.624 381.357 115.916L306.384 150.37C305.217 150.954 303.758 151.246 302.591 151.246C299.09 151.246 295.59 149.202 294.131 145.99C292.089 141.318 294.131 135.771 298.799 133.727L375.23 98.3977C375.23 98.3977 375.522 98.3977 375.522 98.1057L378.148 96.9378L412.279 81.171C428.616 70.6598 427.741 47.3015 409.07 38.5422L351.017 11.6802C318.636 -3.79466 280.42 -3.79466 248.039 11.0962L122.014 68.6159L25.1612 112.997C-8.38708 128.471 -8.38708 171.976 25.1612 187.159L122.014 231.54L291.797 309.206C296.757 311.542 302.591 311.542 307.55 309.206L477.334 231.54L582.938 183.363C612.402 169.64 612.402 130.807 582.646 117.668Z" fill="#FFC700"/>
<path d="M582.646 117.668L532.762 95.1859C499.505 80.2951 460.414 80.2951 426.866 95.4779L383.69 115.04C382.815 115.332 382.232 115.624 381.357 115.916L306.384 150.37C305.217 150.954 303.758 151.246 302.591 151.246C299.09 151.246 295.59 149.202 294.131 145.99C292.089 141.318 294.131 135.771 298.799 133.727L375.23 98.3977C375.23 98.3977 375.522 98.3977 375.522 98.1057L378.148 96.9378L412.279 81.171C428.616 70.6598 427.741 47.3015 409.07 38.5422L351.017 11.6802C318.636 -3.79466 280.42 -3.79466 248.039 11.0962L122.014 68.6159L25.1612 112.997C-8.38708 128.471 -8.38708 171.976 25.1612 187.159L122.014 231.54L291.797 309.206C296.757 311.542 302.591 311.542 307.55 309.206L477.334 231.54L582.938 183.363C612.402 169.64 612.402 130.807 582.646 117.668Z" fill="url(#paint6_linear)"/>
<path d="M142.894 646.055V564.093H187.947C196.262 564.093 202.583 566.044 206.911 569.947C211.238 573.85 213.401 579.45 213.401 586.747C213.401 590.989 212.595 594.553 210.983 597.438C209.456 600.322 207.42 602.613 204.874 604.31C208.353 605.668 211.111 607.662 213.147 610.292C215.268 612.837 216.329 616.655 216.329 621.746C216.329 629.467 213.953 635.449 209.202 639.691C204.45 643.934 197.705 646.055 188.966 646.055H142.894ZM165.93 596.801H181.457C187.311 596.801 190.238 594.171 190.238 588.911C190.238 586.28 189.517 584.286 188.075 582.929C186.717 581.571 184.299 580.893 180.82 580.893H165.93V596.801ZM165.93 629.382H182.475C185.699 629.382 188.075 628.704 189.602 627.346C191.129 625.988 191.893 623.74 191.893 620.601C191.893 617.97 191.129 615.977 189.602 614.619C188.075 613.261 185.529 612.583 181.966 612.583H165.93V629.382ZM225.296 646.055V564.093H287.404V582.42H249.223V595.783H282.695V614.365H249.223V627.728H287.404V646.055H225.296ZM312.966 646.055V581.911H289.93V564.093H359.929V581.911H336.893V646.055H312.966ZM366.238 646.055V564.093H390.164V646.055H366.238ZM428.513 647.327C422.998 647.327 417.78 646.903 412.859 646.055C407.938 645.121 403.738 643.849 400.259 642.237V622.51C404.077 624.292 408.32 625.734 412.986 626.837C417.653 627.94 422.023 628.491 426.095 628.491C430.337 628.491 433.519 628.152 435.64 627.473C437.846 626.71 438.949 625.055 438.949 622.51C438.949 620.728 438.313 619.328 437.04 618.31C435.852 617.292 433.943 616.358 431.313 615.51C428.768 614.661 425.416 613.601 421.259 612.328C415.744 610.546 411.374 608.595 408.15 606.474C404.926 604.353 402.593 601.765 401.15 598.71C399.793 595.656 399.114 591.923 399.114 587.511C399.114 579.45 401.956 573.341 407.641 569.184C413.411 564.941 421.938 562.82 433.222 562.82C437.719 562.82 442.343 563.202 447.095 563.966C451.931 564.729 455.834 565.578 458.803 566.511V586.365C454.816 584.753 450.998 583.608 447.349 582.929C443.701 582.25 440.265 581.911 437.04 581.911C433.307 581.911 430.125 582.208 427.495 582.802C424.865 583.396 423.55 584.923 423.55 587.383C423.55 589.504 424.653 591.074 426.859 592.092C429.15 593.026 433.18 594.256 438.949 595.783C445.652 597.565 450.743 599.728 454.222 602.274C457.785 604.819 460.203 607.789 461.476 611.183C462.749 614.492 463.385 618.267 463.385 622.51C463.385 629.976 460.5 636 454.731 640.582C448.961 645.079 440.222 647.327 428.513 647.327Z" fill="#FFC700"/>
<path d="M142.894 646.055V564.093H187.947C196.262 564.093 202.583 566.044 206.911 569.947C211.238 573.85 213.401 579.45 213.401 586.747C213.401 590.989 212.595 594.553 210.983 597.438C209.456 600.322 207.42 602.613 204.874 604.31C208.353 605.668 211.111 607.662 213.147 610.292C215.268 612.837 216.329 616.655 216.329 621.746C216.329 629.467 213.953 635.449 209.202 639.691C204.45 643.934 197.705 646.055 188.966 646.055H142.894ZM165.93 596.801H181.457C187.311 596.801 190.238 594.171 190.238 588.911C190.238 586.28 189.517 584.286 188.075 582.929C186.717 581.571 184.299 580.893 180.82 580.893H165.93V596.801ZM165.93 629.382H182.475C185.699 629.382 188.075 628.704 189.602 627.346C191.129 625.988 191.893 623.74 191.893 620.601C191.893 617.97 191.129 615.977 189.602 614.619C188.075 613.261 185.529 612.583 181.966 612.583H165.93V629.382ZM225.296 646.055V564.093H287.404V582.42H249.223V595.783H282.695V614.365H249.223V627.728H287.404V646.055H225.296ZM312.966 646.055V581.911H289.93V564.093H359.929V581.911H336.893V646.055H312.966ZM366.238 646.055V564.093H390.164V646.055H366.238ZM428.513 647.327C422.998 647.327 417.78 646.903 412.859 646.055C407.938 645.121 403.738 643.849 400.259 642.237V622.51C404.077 624.292 408.32 625.734 412.986 626.837C417.653 627.94 422.023 628.491 426.095 628.491C430.337 628.491 433.519 628.152 435.64 627.473C437.846 626.71 438.949 625.055 438.949 622.51C438.949 620.728 438.313 619.328 437.04 618.31C435.852 617.292 433.943 616.358 431.313 615.51C428.768 614.661 425.416 613.601 421.259 612.328C415.744 610.546 411.374 608.595 408.15 606.474C404.926 604.353 402.593 601.765 401.15 598.71C399.793 595.656 399.114 591.923 399.114 587.511C399.114 579.45 401.956 573.341 407.641 569.184C413.411 564.941 421.938 562.82 433.222 562.82C437.719 562.82 442.343 563.202 447.095 563.966C451.931 564.729 455.834 565.578 458.803 566.511V586.365C454.816 584.753 450.998 583.608 447.349 582.929C443.701 582.25 440.265 581.911 437.04 581.911C433.307 581.911 430.125 582.208 427.495 582.802C424.865 583.396 423.55 584.923 423.55 587.383C423.55 589.504 424.653 591.074 426.859 592.092C429.15 593.026 433.18 594.256 438.949 595.783C445.652 597.565 450.743 599.728 454.222 602.274C457.785 604.819 460.203 607.789 461.476 611.183C462.749 614.492 463.385 618.267 463.385 622.51C463.385 629.976 460.5 636 454.731 640.582C448.961 645.079 440.222 647.327 428.513 647.327Z" fill="url(#paint7_linear)"/>
<path d="M211.395 727.068V722.388C212.898 718.863 214.978 715.685 217.636 712.853C220.352 710.022 223.241 707.277 226.304 704.619C228.615 702.597 230.522 700.892 232.024 699.505C233.585 698.061 234.798 696.761 235.665 695.605C236.532 694.449 237.138 693.265 237.485 692.051C237.832 690.78 238.005 689.306 238.005 687.631C238.005 684.626 237.138 682.343 235.405 680.783C233.671 679.223 230.782 678.443 226.737 678.443C224.541 678.443 222.288 678.674 219.976 679.136C217.723 679.599 215.556 680.234 213.476 681.043V672.722C215.498 672.029 217.896 671.48 220.67 671.076C223.443 670.613 226.073 670.382 228.557 670.382C234.798 670.382 239.507 671.913 242.686 674.976C245.864 678.039 247.453 682.228 247.453 687.544C247.453 690.202 246.99 692.571 246.066 694.651C245.141 696.674 243.87 698.61 242.252 700.459C240.634 702.25 238.756 704.099 236.618 706.006C233.96 708.317 231.447 710.571 229.077 712.767C226.766 714.905 224.888 717.245 223.443 719.788H248.059V727.068H211.395ZM280.025 728.629C274.131 728.629 269.392 727.502 265.81 725.248C262.227 722.937 259.598 719.643 257.922 715.367C256.304 711.033 255.495 705.862 255.495 699.852C255.495 693.611 256.275 688.295 257.836 683.904C259.454 679.512 262.054 676.161 265.636 673.849C269.219 671.538 274.015 670.382 280.025 670.382C286.034 670.382 290.801 671.538 294.326 673.849C297.909 676.161 300.48 679.512 302.04 683.904C303.658 688.295 304.467 693.611 304.467 699.852C304.467 705.862 303.658 711.033 302.04 715.367C300.423 719.643 297.822 722.937 294.24 725.248C290.657 727.502 285.919 728.629 280.025 728.629ZM280.025 720.568C285.572 720.568 289.444 718.747 291.639 715.107C293.835 711.409 294.933 706.324 294.933 699.852C294.933 692.976 293.864 687.688 291.726 683.99C289.588 680.292 285.688 678.443 280.025 678.443C274.362 678.443 270.433 680.292 268.237 683.99C266.099 687.688 265.03 692.976 265.03 699.852C265.03 706.324 266.128 711.409 268.323 715.107C270.519 718.747 274.42 720.568 280.025 720.568ZM311.953 727.068V722.388C313.456 718.863 315.536 715.685 318.194 712.853C320.91 710.022 323.799 707.277 326.862 704.619C329.173 702.597 331.08 700.892 332.582 699.505C334.143 698.061 335.356 696.761 336.223 695.605C337.089 694.449 337.696 693.265 338.043 692.051C338.39 690.78 338.563 689.306 338.563 687.631C338.563 684.626 337.696 682.343 335.963 680.783C334.229 679.223 331.34 678.443 327.295 678.443C325.099 678.443 322.846 678.674 320.534 679.136C318.281 679.599 316.114 680.234 314.034 681.043V672.722C316.056 672.029 318.454 671.48 321.228 671.076C324.001 670.613 326.631 670.382 329.115 670.382C335.356 670.382 340.065 671.913 343.244 674.976C346.422 678.039 348.011 682.228 348.011 687.544C348.011 690.202 347.548 692.571 346.624 694.651C345.699 696.674 344.428 698.61 342.81 700.459C341.192 702.25 339.314 704.099 337.176 706.006C334.518 708.317 332.004 710.571 329.635 712.767C327.324 714.905 325.446 717.245 324.001 719.788H348.617V727.068H311.953ZM356.053 727.068V722.388C357.556 718.863 359.636 715.685 362.294 712.853C365.01 710.022 367.899 707.277 370.962 704.619C373.273 702.597 375.18 700.892 376.682 699.505C378.242 698.061 379.456 696.761 380.323 695.605C381.189 694.449 381.796 693.265 382.143 692.051C382.49 690.78 382.663 689.306 382.663 687.631C382.663 684.626 381.796 682.343 380.063 680.783C378.329 679.223 375.44 678.443 371.395 678.443C369.199 678.443 366.946 678.674 364.634 679.136C362.381 679.599 360.214 680.234 358.134 681.043V672.722C360.156 672.029 362.554 671.48 365.328 671.076C368.101 670.613 370.73 670.382 373.215 670.382C379.456 670.382 384.165 671.913 387.343 674.976C390.522 678.039 392.111 682.228 392.111 687.544C392.111 690.202 391.648 692.571 390.724 694.651C389.799 696.674 388.528 698.61 386.91 700.459C385.292 702.25 383.414 704.099 381.276 706.006C378.618 708.317 376.104 710.571 373.735 712.767C371.424 714.905 369.546 717.245 368.101 719.788H392.717V727.068H356.053Z" fill="#FFC700"/>
<path d="M211.395 727.068V722.388C212.898 718.863 214.978 715.685 217.636 712.853C220.352 710.022 223.241 707.277 226.304 704.619C228.615 702.597 230.522 700.892 232.024 699.505C233.585 698.061 234.798 696.761 235.665 695.605C236.532 694.449 237.138 693.265 237.485 692.051C237.832 690.78 238.005 689.306 238.005 687.631C238.005 684.626 237.138 682.343 235.405 680.783C233.671 679.223 230.782 678.443 226.737 678.443C224.541 678.443 222.288 678.674 219.976 679.136C217.723 679.599 215.556 680.234 213.476 681.043V672.722C215.498 672.029 217.896 671.48 220.67 671.076C223.443 670.613 226.073 670.382 228.557 670.382C234.798 670.382 239.507 671.913 242.686 674.976C245.864 678.039 247.453 682.228 247.453 687.544C247.453 690.202 246.99 692.571 246.066 694.651C245.141 696.674 243.87 698.61 242.252 700.459C240.634 702.25 238.756 704.099 236.618 706.006C233.96 708.317 231.447 710.571 229.077 712.767C226.766 714.905 224.888 717.245 223.443 719.788H248.059V727.068H211.395ZM280.025 728.629C274.131 728.629 269.392 727.502 265.81 725.248C262.227 722.937 259.598 719.643 257.922 715.367C256.304 711.033 255.495 705.862 255.495 699.852C255.495 693.611 256.275 688.295 257.836 683.904C259.454 679.512 262.054 676.161 265.636 673.849C269.219 671.538 274.015 670.382 280.025 670.382C286.034 670.382 290.801 671.538 294.326 673.849C297.909 676.161 300.48 679.512 302.04 683.904C303.658 688.295 304.467 693.611 304.467 699.852C304.467 705.862 303.658 711.033 302.04 715.367C300.423 719.643 297.822 722.937 294.24 725.248C290.657 727.502 285.919 728.629 280.025 728.629ZM280.025 720.568C285.572 720.568 289.444 718.747 291.639 715.107C293.835 711.409 294.933 706.324 294.933 699.852C294.933 692.976 293.864 687.688 291.726 683.99C289.588 680.292 285.688 678.443 280.025 678.443C274.362 678.443 270.433 680.292 268.237 683.99C266.099 687.688 265.03 692.976 265.03 699.852C265.03 706.324 266.128 711.409 268.323 715.107C270.519 718.747 274.42 720.568 280.025 720.568ZM311.953 727.068V722.388C313.456 718.863 315.536 715.685 318.194 712.853C320.91 710.022 323.799 707.277 326.862 704.619C329.173 702.597 331.08 700.892 332.582 699.505C334.143 698.061 335.356 696.761 336.223 695.605C337.089 694.449 337.696 693.265 338.043 692.051C338.39 690.78 338.563 689.306 338.563 687.631C338.563 684.626 337.696 682.343 335.963 680.783C334.229 679.223 331.34 678.443 327.295 678.443C325.099 678.443 322.846 678.674 320.534 679.136C318.281 679.599 316.114 680.234 314.034 681.043V672.722C316.056 672.029 318.454 671.48 321.228 671.076C324.001 670.613 326.631 670.382 329.115 670.382C335.356 670.382 340.065 671.913 343.244 674.976C346.422 678.039 348.011 682.228 348.011 687.544C348.011 690.202 347.548 692.571 346.624 694.651C345.699 696.674 344.428 698.61 342.81 700.459C341.192 702.25 339.314 704.099 337.176 706.006C334.518 708.317 332.004 710.571 329.635 712.767C327.324 714.905 325.446 717.245 324.001 719.788H348.617V727.068H311.953ZM356.053 727.068V722.388C357.556 718.863 359.636 715.685 362.294 712.853C365.01 710.022 367.899 707.277 370.962 704.619C373.273 702.597 375.18 700.892 376.682 699.505C378.242 698.061 379.456 696.761 380.323 695.605C381.189 694.449 381.796 693.265 382.143 692.051C382.49 690.78 382.663 689.306 382.663 687.631C382.663 684.626 381.796 682.343 380.063 680.783C378.329 679.223 375.44 678.443 371.395 678.443C369.199 678.443 366.946 678.674 364.634 679.136C362.381 679.599 360.214 680.234 358.134 681.043V672.722C360.156 672.029 362.554 671.48 365.328 671.076C368.101 670.613 370.73 670.382 373.215 670.382C379.456 670.382 384.165 671.913 387.343 674.976C390.522 678.039 392.111 682.228 392.111 687.544C392.111 690.202 391.648 692.571 390.724 694.651C389.799 696.674 388.528 698.61 386.91 700.459C385.292 702.25 383.414 704.099 381.276 706.006C378.618 708.317 376.104 710.571 373.735 712.767C371.424 714.905 369.546 717.245 368.101 719.788H392.717V727.068H356.053Z" fill="url(#paint8_linear)"/>
<defs>
<linearGradient id="paint0_linear" x1="300.693" y1="303.367" x2="339.12" y2="452.906" gradientUnits="userSpaceOnUse">
<stop offset="0.544644" stop-color="#FFC700"/>
<stop offset="1" stop-color="#FF9900"/>
</linearGradient>
<linearGradient id="paint1_linear" x1="300.694" y1="288.768" x2="347.916" y2="463.272" gradientUnits="userSpaceOnUse">
<stop offset="0.544644" stop-color="#FFC700"/>
<stop offset="1" stop-color="#FF9900"/>
</linearGradient>
<linearGradient id="paint2_linear" x1="300.549" y1="311.707" x2="347.455" y2="510.994" gradientUnits="userSpaceOnUse">
<stop offset="0.544644" stop-color="#FFC700"/>
<stop offset="1" stop-color="#FF9900"/>
</linearGradient>
<linearGradient id="paint3_linear" x1="568.79" y1="173.436" x2="591.85" y2="189.105" gradientUnits="userSpaceOnUse">
<stop offset="0.544644" stop-color="#FFC700"/>
<stop offset="1" stop-color="#FF9900"/>
</linearGradient>
<linearGradient id="paint4_linear" x1="568.646" y1="246.723" x2="605.447" y2="292.957" gradientUnits="userSpaceOnUse">
<stop offset="0.544644" stop-color="#FFC700"/>
<stop offset="1" stop-color="#FF9900"/>
</linearGradient>
<linearGradient id="paint5_linear" x1="568.646" y1="220.736" x2="578.996" y2="247.371" gradientUnits="userSpaceOnUse">
<stop offset="0.544644" stop-color="#FFC700"/>
<stop offset="1" stop-color="#FF9900"/>
</linearGradient>
<linearGradient id="paint6_linear" x1="302.5" y1="4.33335e-06" x2="359.462" y2="285.443" gradientUnits="userSpaceOnUse">
<stop offset="0.544644" stop-color="#FFC700"/>
<stop offset="1" stop-color="#FF9900"/>
</linearGradient>
<linearGradient id="paint7_linear" x1="301.847" y1="506.055" x2="340.502" y2="678.78" gradientUnits="userSpaceOnUse">
<stop offset="0.544644" stop-color="#FFC700"/>
<stop offset="1" stop-color="#FF9900"/>
</linearGradient>
<linearGradient id="paint8_linear" x1="302.047" y1="631.068" x2="330.977" y2="748.011" gradientUnits="userSpaceOnUse">
<stop offset="0.544644" stop-color="#FFC700"/>
<stop offset="1" stop-color="#FF9900"/>
</linearGradient>
</defs>
</svg>
