<svg width="534" height="534" viewBox="0 0 534 534" fill="none" xmlns="http://www.w3.org/2000/svg">
<path d="M265.581 532.141C213.449 532.131 162.491 516.665 119.148 487.699C75.8041 458.733 42.0216 417.567 22.0704 369.404C2.11927 321.241 -3.1047 268.245 7.05887 217.113C17.2224 165.982 42.3173 119.012 79.171 82.1406C103.506 57.0353 132.591 37.0214 164.735 23.2643C196.878 9.50711 231.437 2.28149 266.4 2.00806C301.362 1.73463 336.03 8.41885 368.385 21.6716C400.739 34.9243 430.134 54.4808 454.859 79.2025C479.583 103.924 499.143 133.317 512.399 165.671C525.655 198.024 532.343 232.691 532.073 267.653C531.804 302.616 524.582 337.176 510.828 369.321C497.074 401.465 477.064 430.553 451.961 454.891C427.545 479.45 398.5 498.923 366.508 512.183C334.516 525.443 300.212 532.226 265.581 532.141Z" fill="white" stroke="black" stroke-width="3"/>
<path fill-rule="evenodd" clip-rule="evenodd" d="M188.066 195.045C187.872 194.349 187.771 193.625 187.771 192.891C187.771 191.381 187.841 189.741 187.931 188.021C188.611 173.891 189.871 147.601 152.551 94.7705C151.945 93.9124 151.514 92.9432 151.282 91.9184C151.051 90.8936 151.023 89.8333 151.202 88.7979C151.38 87.7625 151.76 86.7724 152.321 85.8841C152.882 84.9957 153.613 84.2266 154.471 83.6206C155.329 83.0145 156.298 82.5834 157.323 82.3519C158.348 82.1204 159.408 82.093 160.444 82.2713C161.479 82.4496 162.469 82.8301 163.357 83.391C164.246 83.9519 165.015 84.6824 165.621 85.5406C206.1 142.841 204.623 173.849 203.912 188.757L203.911 188.781C203.831 190.381 203.771 191.781 203.771 192.891C203.771 194.224 203.438 195.524 202.818 196.677C216.156 199.11 240.812 197.343 258.621 186.781C260.203 185.988 262.026 185.824 263.724 186.321C265.421 186.818 266.868 187.939 267.773 189.46C268.677 190.98 268.973 192.786 268.599 194.516C268.226 196.245 267.212 197.769 265.761 198.781C250.961 207.631 231.331 211.701 214.851 211.701C204.161 211.701 194.851 209.991 188.951 206.701C187.328 205.798 186.13 204.287 185.621 202.5C185.112 200.714 185.333 198.799 186.236 197.176C186.7 196.341 187.326 195.619 188.066 195.045Z" fill="#E5B632"/>
<path d="M188.066 195.045L188.985 196.23L189.783 195.612L189.511 194.641L188.066 195.045ZM187.931 188.021L189.429 188.099L189.429 188.093L187.931 188.021ZM152.551 94.7705L151.326 95.6358L151.326 95.636L152.551 94.7705ZM151.282 91.9184L152.745 91.5879H152.745L151.282 91.9184ZM151.202 88.7979L149.723 88.5434L151.202 88.7979ZM152.321 85.8841L153.59 86.685L152.321 85.8841ZM157.323 82.3519L157.654 83.815L157.323 82.3519ZM160.444 82.2713L160.698 80.7931L160.444 82.2713ZM163.357 83.391L164.158 82.1227L164.158 82.1227L163.357 83.391ZM165.621 85.5406L164.396 86.4058L164.396 86.406L165.621 85.5406ZM203.912 188.757L202.414 188.686L202.414 188.686L203.912 188.757ZM203.911 188.781L205.409 188.855L205.409 188.852L203.911 188.781ZM202.818 196.677L201.497 195.967L200.521 197.783L202.549 198.153L202.818 196.677ZM258.621 186.781L257.949 185.44L257.902 185.463L257.856 185.49L258.621 186.781ZM263.724 186.321L263.302 187.76L263.724 186.321ZM267.773 189.46L266.484 190.227L266.484 190.227L267.773 189.46ZM268.599 194.516L267.133 194.199V194.199L268.599 194.516ZM265.761 198.781L266.531 200.068L266.576 200.041L266.619 200.011L265.761 198.781ZM188.951 206.701L189.682 205.39L189.68 205.39L188.951 206.701ZM185.621 202.5L184.178 202.912L185.621 202.5ZM186.236 197.176L184.925 196.446H184.925L186.236 197.176ZM189.511 194.641C189.353 194.076 189.271 193.487 189.271 192.891H186.271C186.271 193.763 186.391 194.623 186.622 195.448L189.511 194.641ZM189.271 192.891C189.271 191.422 189.339 189.814 189.429 188.099L186.433 187.942C186.343 189.667 186.271 191.339 186.271 192.891H189.271ZM189.429 188.093C189.772 180.968 190.265 170.672 185.933 155.496C181.611 140.351 172.506 120.419 153.776 93.9051L151.326 95.636C169.916 121.952 178.841 141.58 183.049 156.32C187.247 171.029 186.77 180.943 186.433 187.948L189.429 188.093ZM153.776 93.9053C153.284 93.208 152.934 92.4205 152.745 91.5879L149.819 92.2489C150.094 93.4659 150.606 94.6167 151.326 95.6358L153.776 93.9053ZM152.745 91.5879C152.557 90.7552 152.535 89.8937 152.68 89.0525L149.723 88.5434C149.512 89.7729 149.544 91.032 149.819 92.2489L152.745 91.5879ZM152.68 89.0525C152.825 88.2112 153.134 87.4067 153.59 86.685L151.053 85.0832C150.387 86.1381 149.935 87.3139 149.723 88.5434L152.68 89.0525ZM153.59 86.685C154.046 85.9632 154.639 85.3382 155.336 84.8458L153.606 82.3953C152.587 83.115 151.719 84.0283 151.053 85.0832L153.59 86.685ZM155.336 84.8458C156.034 84.3534 156.821 84.0031 157.654 83.815L156.993 80.8888C155.776 81.1637 154.625 81.6756 153.606 82.3953L155.336 84.8458ZM157.654 83.815C158.486 83.6269 159.348 83.6047 160.189 83.7496L160.698 80.7931C159.469 80.5814 158.21 80.6139 156.993 80.8888L157.654 83.815ZM160.189 83.7496C161.03 83.8944 161.835 84.2036 162.557 84.6593L164.158 82.1227C163.103 81.4566 161.928 81.0048 160.698 80.7931L160.189 83.7496ZM162.557 84.6593C163.278 85.1151 163.903 85.7086 164.396 86.4058L166.846 84.6753C166.127 83.6562 165.213 82.7888 164.158 82.1227L162.557 84.6593ZM164.396 86.406C184.557 114.946 194.22 136.866 198.766 153.443C203.306 169.995 202.766 181.29 202.414 188.686L205.41 188.829C205.768 181.316 206.323 169.653 201.659 152.649C197.002 135.669 187.164 113.436 166.846 84.6751L164.396 86.406ZM202.414 188.686L202.413 188.709L205.409 188.852L205.41 188.829L202.414 188.686ZM202.413 188.706C202.333 190.303 202.271 191.738 202.271 192.891H205.271C205.271 191.823 205.329 190.458 205.409 188.855L202.413 188.706ZM202.271 192.891C202.271 193.974 202 195.03 201.497 195.967L204.139 197.387C204.875 196.017 205.271 194.474 205.271 192.891H202.271ZM202.549 198.153C209.407 199.404 219.073 199.563 229.258 198.087C239.447 196.61 250.266 193.48 259.386 188.071L257.856 185.49C249.167 190.644 238.753 193.679 228.828 195.118C218.898 196.557 209.566 196.384 203.087 195.202L202.549 198.153ZM259.293 188.122C260.536 187.499 261.968 187.37 263.302 187.76L264.145 184.881C262.083 184.278 259.87 184.477 257.949 185.44L259.293 188.122ZM263.302 187.76C264.636 188.151 265.773 189.032 266.484 190.227L269.062 188.693C267.963 186.846 266.207 185.485 264.145 184.881L263.302 187.76ZM266.484 190.227C267.194 191.421 267.426 192.84 267.133 194.199L270.066 194.832C270.519 192.732 270.16 190.539 269.062 188.693L266.484 190.227ZM267.133 194.199C266.84 195.558 266.043 196.755 264.903 197.55L266.619 200.011C268.381 198.782 269.613 196.932 270.066 194.832L267.133 194.199ZM264.991 197.493C250.479 206.171 231.133 210.201 214.851 210.201V213.201C231.529 213.201 251.443 209.09 266.531 200.068L264.991 197.493ZM214.851 210.201C204.263 210.201 195.254 208.498 189.682 205.39L188.22 208.011C194.448 211.483 204.059 213.201 214.851 213.201V210.201ZM189.68 205.39C188.405 204.68 187.463 203.493 187.063 202.089L184.178 202.912C184.796 205.08 186.251 206.915 188.222 208.011L189.68 205.39ZM187.063 202.089C186.663 200.685 186.837 199.18 187.547 197.905L184.925 196.446C183.829 198.417 183.56 200.743 184.178 202.912L187.063 202.089ZM187.547 197.905C187.912 197.249 188.403 196.681 188.985 196.23L187.148 193.859C186.248 194.556 185.489 195.433 184.925 196.446L187.547 197.905Z" fill="black"/>
<path d="M294.571 132.471C276.921 132.471 234.571 123.321 234.571 100.691C234.571 98.7016 235.361 96.7939 236.768 95.3874C238.174 93.9808 240.082 93.1907 242.071 93.1907C244.06 93.1907 245.968 93.9808 247.374 95.3874C248.781 96.7939 249.571 98.7016 249.571 100.691C249.571 107.061 274.711 117.471 294.571 117.471C296.56 117.471 298.468 118.261 299.874 119.667C301.281 121.074 302.071 122.982 302.071 124.971C302.071 126.96 301.281 128.867 299.874 130.274C298.468 131.68 296.56 132.471 294.571 132.471Z" fill="#F54A39" stroke="black" stroke-width="3"/>
<path d="M322.251 179.231C320.731 179.233 319.242 178.803 317.958 177.99C316.674 177.177 315.649 176.015 315.001 174.641C302.221 147.501 308.001 116.931 316.231 87.9307C316.808 85.8885 318.172 84.1591 320.024 83.123C321.876 82.0869 324.064 81.8288 326.106 82.4057C328.148 82.9825 329.877 84.347 330.914 86.1989C331.95 88.0508 332.208 90.2385 331.631 92.2807C324.281 118.281 318.941 145.441 329.481 167.821C330.055 169.039 330.312 170.384 330.229 171.728C330.145 173.073 329.723 174.375 329.002 175.513C328.28 176.651 327.284 177.588 326.103 178.238C324.923 178.888 323.598 179.23 322.251 179.231Z" fill="#E5B632" stroke="black" stroke-width="3"/>
<path d="M219.791 108.061C207.266 108.164 194.752 107.298 182.361 105.471C160.841 102.031 149.961 95.5807 148.961 85.7607C148.808 83.8025 149.059 81.8339 149.697 79.9763C150.335 78.1188 151.347 76.4117 152.671 74.9607C164.751 60.6607 207.671 52.7907 240.791 50.3907C264.461 48.6807 287.021 49.2607 304.301 52.0207C325.821 55.4607 336.741 61.9107 337.691 71.7307C337.842 73.6903 337.589 75.6601 336.947 77.5179C336.306 79.3757 335.289 81.0819 333.961 82.5307C321.901 96.8907 278.961 104.711 245.871 107.101C236.961 107.741 228.181 108.061 219.791 108.061ZM165.961 84.1907C168.701 85.8507 175.511 88.5107 189.251 90.3007C204.741 92.3007 224.451 92.6107 244.761 91.1407C288.941 87.9507 314.631 78.5607 320.761 73.3007C318.011 71.6507 311.201 68.9807 297.471 67.2007C281.961 65.1907 262.251 64.8907 241.961 66.3507C197.771 69.5507 172.081 78.9407 165.961 84.1907Z" fill="#F54A39" stroke="black" stroke-width="3"/>
<path fill-rule="evenodd" clip-rule="evenodd" d="M196.191 268.441C196.246 268.412 196.301 268.383 196.355 268.354C244.937 247.201 280.059 228.182 305.741 214.241C323.369 204.678 340.178 195.602 346.483 194.616C347.2 194.806 347.945 194.904 348.701 194.901H348.781C348.813 194.9 348.847 194.9 348.881 194.9C349.304 195.012 349.733 195.092 350.165 195.138C350.725 195.424 351.249 196.048 351.501 197.401C351.821 199.121 351.421 202.011 349.021 202.911C347.154 203.61 345.593 204.943 344.609 206.676C343.626 208.41 343.283 210.434 343.64 212.395C343.997 214.356 345.032 216.129 346.564 217.404C348.096 218.679 350.028 219.375 352.021 219.371C353.035 219.369 354.041 219.186 354.991 218.831C364.631 215.211 370.211 204.891 368.211 194.291C366.651 185.876 360.716 179.848 352.895 178.295C342.576 174.972 328.843 182.381 297.641 199.301C272.121 213.131 237.181 232.031 188.991 253.031C188.681 253.165 188.38 253.317 188.091 253.486C159.992 267.469 142.912 264.719 136.281 257.501C131.541 252.351 131.291 244.091 135.661 236.941C142.301 226.061 159.911 217.331 189.441 225.471C191.606 226.044 193.91 225.739 195.852 224.622C197.794 223.506 199.217 221.668 199.811 219.509C200.405 217.349 200.123 215.042 199.026 213.089C197.928 211.137 196.105 209.696 193.951 209.081C155.331 198.431 131.021 211.911 121.151 228.081C112.761 241.761 113.841 258.211 123.761 269.001C127.831 273.421 136.911 280.501 153.341 280.501C164.191 280.501 178.251 277.411 196.191 268.441Z" fill="#028F4D"/>
<path d="M196.355 268.354L195.756 266.978L195.695 267.005L195.637 267.036L196.355 268.354ZM196.191 268.441L196.862 269.782L196.871 269.778L196.88 269.773L196.191 268.441ZM305.741 214.241L305.026 212.922L305.025 212.922L305.741 214.241ZM346.483 194.616L346.868 193.166L346.563 193.085L346.251 193.134L346.483 194.616ZM348.701 194.901V193.401L348.695 193.401L348.701 194.901ZM348.781 194.901V196.401H348.79L348.799 196.401L348.781 194.901ZM348.881 194.9L349.268 193.45L349.072 193.398L348.871 193.4L348.881 194.9ZM350.165 195.138L350.846 193.802L350.6 193.676L350.325 193.647L350.165 195.138ZM351.501 197.401L352.976 197.126L352.975 197.126L351.501 197.401ZM349.021 202.911L349.547 204.315L349.548 204.315L349.021 202.911ZM343.64 212.395L345.116 212.126L343.64 212.395ZM352.021 219.371L352.018 217.871L352.018 217.871L352.021 219.371ZM354.991 218.831L355.516 220.236L355.518 220.235L354.991 218.831ZM368.211 194.291L366.736 194.564L366.737 194.569L368.211 194.291ZM352.895 178.295L352.436 179.722L352.518 179.749L352.603 179.766L352.895 178.295ZM297.641 199.301L298.356 200.619L298.356 200.619L297.641 199.301ZM188.991 253.031L189.587 254.407L189.59 254.406L188.991 253.031ZM188.091 253.486L188.759 254.829L188.803 254.807L188.846 254.782L188.091 253.486ZM136.281 257.501L137.386 256.486L137.385 256.485L136.281 257.501ZM135.661 236.941L136.941 237.723L136.941 237.722L135.661 236.941ZM189.441 225.471L189.042 226.917L189.05 226.919L189.057 226.921L189.441 225.471ZM193.951 209.081L194.363 207.638L194.35 207.635L193.951 209.081ZM121.151 228.081L122.43 228.865L122.431 228.862L121.151 228.081ZM123.761 269.001L122.657 270.016L122.657 270.017L123.761 269.001ZM195.637 267.036C195.593 267.061 195.547 267.085 195.502 267.108L196.88 269.773C196.944 269.74 197.009 269.705 197.073 269.671L195.637 267.036ZM305.025 212.922C279.352 226.859 244.276 245.852 195.756 266.978L196.954 269.729C245.597 248.549 280.766 229.505 306.456 215.559L305.025 212.922ZM346.251 193.134C344.486 193.41 342.113 194.223 339.36 195.368C336.577 196.526 333.3 198.069 329.689 199.87C322.467 203.471 313.834 208.144 305.026 212.922L306.456 215.559C315.276 210.775 323.861 206.128 331.028 202.554C334.611 200.768 337.819 199.259 340.512 198.138C343.235 197.006 345.327 196.315 346.714 196.098L346.251 193.134ZM348.695 193.401C348.073 193.403 347.459 193.323 346.868 193.166L346.097 196.065C346.941 196.29 347.818 196.404 348.707 196.401L348.695 193.401ZM348.781 193.401H348.701V196.401H348.781V193.401ZM348.871 193.4C348.832 193.4 348.795 193.4 348.763 193.401L348.799 196.401C348.831 196.4 348.862 196.4 348.892 196.4L348.871 193.4ZM350.325 193.647C349.969 193.608 349.615 193.543 349.268 193.45L348.495 196.349C348.992 196.482 349.497 196.575 350.005 196.629L350.325 193.647ZM352.975 197.126C352.668 195.478 351.95 194.365 350.846 193.802L349.483 196.474C349.523 196.494 349.595 196.539 349.687 196.682C349.788 196.838 349.926 197.136 350.026 197.676L352.975 197.126ZM349.548 204.315C351.273 203.668 352.235 202.304 352.7 200.95C353.154 199.624 353.176 198.206 352.976 197.126L350.026 197.675C350.145 198.315 350.128 199.202 349.862 199.977C349.606 200.722 349.169 201.253 348.494 201.506L349.548 204.315ZM345.914 207.416C346.724 205.989 348.01 204.891 349.547 204.315L348.495 201.506C346.299 202.328 344.462 203.896 343.305 205.936L345.914 207.416ZM345.116 212.126C344.821 210.511 345.104 208.844 345.914 207.416L343.305 205.936C342.147 207.975 341.744 210.357 342.164 212.664L345.116 212.126ZM347.524 216.251C346.262 215.201 345.41 213.741 345.116 212.126L342.164 212.664C342.585 214.971 343.802 217.056 345.605 218.557L347.524 216.251ZM352.018 217.871C350.376 217.874 348.786 217.301 347.524 216.251L345.605 218.557C347.407 220.057 349.679 220.876 352.024 220.871L352.018 217.871ZM354.465 217.426C353.683 217.718 352.854 217.869 352.018 217.871L352.023 220.871C353.216 220.869 354.399 220.653 355.516 220.236L354.465 217.426ZM366.737 194.569C368.611 204.499 363.378 214.079 354.464 217.426L355.518 220.235C365.884 216.342 371.811 205.282 369.685 194.013L366.737 194.569ZM352.603 179.766C359.794 181.194 365.283 186.726 366.736 194.564L369.686 194.017C368.019 185.026 361.637 178.501 353.188 176.823L352.603 179.766ZM298.356 200.619C313.989 192.142 325.139 186.108 333.67 182.594C342.219 179.073 347.805 178.232 352.436 179.722L353.355 176.867C347.666 175.035 341.226 176.237 332.528 179.82C323.813 183.41 312.495 189.54 296.926 197.982L298.356 200.619ZM189.59 254.406C237.841 233.379 272.828 214.454 298.356 200.619L296.926 197.982C271.414 211.808 236.52 230.682 188.392 251.656L189.59 254.406ZM188.846 254.782C189.084 254.643 189.332 254.518 189.587 254.407L188.395 251.654C188.03 251.812 187.676 251.991 187.336 252.189L188.846 254.782ZM135.176 258.515C138.871 262.536 145.273 265.107 154.163 264.943C163.063 264.78 174.58 261.885 188.759 254.829L187.422 252.143C173.504 259.07 162.431 261.791 154.108 261.944C145.777 262.097 140.323 259.683 137.386 256.486L135.176 258.515ZM134.381 236.158C129.754 243.729 129.874 252.755 135.177 258.516L137.385 256.485C133.207 251.946 132.828 244.452 136.941 237.723L134.381 236.158ZM189.84 224.025C159.925 215.778 141.492 224.506 134.381 236.159L136.941 237.722C143.11 227.615 159.897 218.883 189.042 226.917L189.84 224.025ZM195.104 223.322C193.505 224.241 191.608 224.492 189.825 224.02L189.057 226.921C191.605 227.595 194.315 227.236 196.6 225.923L195.104 223.322ZM198.365 219.111C197.875 220.889 196.704 222.403 195.104 223.322L196.6 225.923C198.884 224.609 200.558 222.447 201.257 219.907L198.365 219.111ZM197.718 213.824C198.622 215.432 198.854 217.332 198.365 219.111L201.257 219.907C201.956 217.366 201.624 214.652 200.333 212.354L197.718 213.824ZM193.539 210.523C195.312 211.03 196.814 212.216 197.718 213.824L200.333 212.354C199.042 210.057 196.897 208.362 194.363 207.638L193.539 210.523ZM122.431 228.862C131.885 213.375 155.442 200.017 193.552 210.527L194.35 207.635C155.22 196.844 130.157 210.446 119.871 227.299L122.431 228.862ZM124.865 267.985C115.453 257.747 114.347 242.044 122.43 228.865L119.872 227.296C111.175 241.477 112.229 258.674 122.657 270.016L124.865 267.985ZM153.341 279.001C137.403 279.001 128.704 272.154 124.864 267.984L122.657 270.017C126.958 274.687 136.419 282.001 153.341 282.001V279.001ZM195.52 267.099C177.733 275.992 163.903 279.001 153.341 279.001V282.001C164.479 282.001 178.769 278.829 196.862 269.782L195.52 267.099Z" fill="black"/>
<path fill-rule="evenodd" clip-rule="evenodd" d="M164.961 340.963C172.747 332.035 181.111 312.05 179.231 284.801C179.098 282.944 179.709 281.111 180.928 279.704C182.147 278.298 183.875 277.433 185.731 277.301C187.588 277.168 189.421 277.778 190.827 278.997C192.234 280.216 193.098 281.944 193.231 283.801C195.049 310.08 188.475 330.71 180.429 343.482C186.049 345.921 193.656 347.733 201.131 345.871C202.933 345.424 204.839 345.711 206.429 346.669C208.02 347.628 209.164 349.179 209.611 350.981C210.058 352.783 209.771 354.689 208.812 356.279C207.854 357.869 206.303 359.014 204.501 359.461C201.323 360.239 198.063 360.629 194.791 360.621C184.515 360.471 174.514 357.28 166.051 351.451C164.534 350.379 163.505 348.749 163.19 346.919C162.875 345.088 163.3 343.208 164.371 341.691C164.552 341.434 164.75 341.191 164.961 340.963Z" fill="#F54A39"/>
<path d="M164.961 340.963L166.06 341.985L166.076 341.967L166.092 341.949L164.961 340.963ZM179.231 284.801L180.727 284.697L180.727 284.694L179.231 284.801ZM180.928 279.704L179.794 278.722L180.928 279.704ZM185.731 277.301L185.838 278.797L185.731 277.301ZM193.231 283.801L194.727 283.697L194.727 283.694L193.231 283.801ZM180.429 343.482L179.16 342.683L178.228 344.163L179.832 344.858L180.429 343.482ZM201.131 345.871L200.77 344.415L200.768 344.415L201.131 345.871ZM206.429 346.669L207.204 345.385H207.204L206.429 346.669ZM209.611 350.981L208.155 351.342L209.611 350.981ZM208.812 356.279L207.528 355.505V355.505L208.812 356.279ZM204.501 359.461L204.858 360.918L204.862 360.917L204.501 359.461ZM194.791 360.621L194.769 362.121L194.778 362.121L194.787 362.121L194.791 360.621ZM166.051 351.451L165.186 352.676L165.193 352.681L165.2 352.686L166.051 351.451ZM163.19 346.919L164.668 346.664H164.668L163.19 346.919ZM164.371 341.691L163.146 340.825L163.146 340.825L164.371 341.691ZM166.092 341.949C174.188 332.666 182.63 312.265 180.727 284.697L177.735 284.904C179.593 311.836 171.307 331.404 163.831 339.978L166.092 341.949ZM180.727 284.694C180.623 283.234 181.103 281.793 182.061 280.687L179.794 278.722C178.315 280.429 177.574 282.654 177.735 284.907L180.727 284.694ZM182.061 280.687C183.02 279.581 184.378 278.901 185.838 278.797L185.624 275.804C183.371 275.965 181.274 277.015 179.794 278.722L182.061 280.687ZM185.838 278.797C187.298 278.692 188.739 279.172 189.845 280.131L191.81 277.864C190.102 276.384 187.877 275.643 185.624 275.804L185.838 278.797ZM189.845 280.131C190.951 281.089 191.631 282.448 191.735 283.907L194.727 283.694C194.566 281.44 193.517 279.343 191.81 277.864L189.845 280.131ZM191.735 283.904C193.532 309.887 187.025 330.197 179.16 342.683L181.698 344.282C189.924 331.223 196.566 310.273 194.727 283.697L191.735 283.904ZM179.832 344.858C185.618 347.369 193.579 349.298 201.494 347.326L200.768 344.415C193.733 346.168 186.481 344.473 181.026 342.106L179.832 344.858ZM201.492 347.327C202.908 346.975 204.406 347.201 205.655 347.954L207.204 345.385C205.272 344.221 202.958 343.872 200.77 344.415L201.492 347.327ZM205.655 347.954C206.905 348.707 207.804 349.926 208.155 351.342L211.067 350.62C210.524 348.431 209.135 346.548 207.204 345.385L205.655 347.954ZM208.155 351.342C208.506 352.758 208.281 354.255 207.528 355.505L210.097 357.053C211.261 355.122 211.61 352.808 211.067 350.62L208.155 351.342ZM207.528 355.505C206.775 356.754 205.556 357.654 204.14 358.005L204.862 360.917C207.05 360.374 208.933 358.984 210.097 357.053L207.528 355.505ZM204.144 358.004C201.084 358.753 197.945 359.128 194.795 359.121L194.787 362.121C198.181 362.129 201.562 361.725 204.858 360.918L204.144 358.004ZM194.813 359.121C184.834 358.976 175.121 355.877 166.902 350.215L165.2 352.686C173.908 358.684 184.197 361.967 194.769 362.121L194.813 359.121ZM166.916 350.225C165.724 349.383 164.915 348.102 164.668 346.664L161.711 347.173C162.094 349.396 163.344 351.375 165.186 352.676L166.916 350.225ZM164.668 346.664C164.42 345.226 164.754 343.748 165.596 342.556L163.146 340.825C161.845 342.667 161.329 344.951 161.711 347.173L164.668 346.664ZM165.596 342.556C165.739 342.354 165.894 342.163 166.06 341.985L163.862 339.942C163.606 340.219 163.366 340.514 163.146 340.825L165.596 342.556Z" fill="black"/>
<path fill-rule="evenodd" clip-rule="evenodd" d="M305.664 369.941C305.979 369.656 306.319 369.396 306.682 369.165C326.272 356.685 339.342 332.475 341.682 304.395C344.192 273.915 333.762 245.795 313.092 227.245C312.322 226.599 311.689 225.805 311.232 224.91C310.775 224.014 310.503 223.036 310.432 222.034C310.36 221.031 310.491 220.024 310.816 219.073C311.141 218.122 311.654 217.246 312.325 216.497C312.995 215.749 313.809 215.142 314.719 214.714C315.628 214.286 316.614 214.045 317.619 214.006C318.623 213.966 319.625 214.129 320.565 214.485C321.505 214.84 322.365 215.381 323.092 216.075C347.292 237.785 359.512 270.425 356.622 305.625C354.261 334.352 341.917 359.804 323.03 375.729C322.756 376.033 322.456 376.317 322.132 376.575C301.982 392.625 277.822 399.525 255.012 399.525C233.292 399.525 212.792 393.275 198.122 382.735C196.506 381.574 195.419 379.818 195.098 377.854C194.777 375.891 195.25 373.88 196.412 372.265C197.573 370.65 199.329 369.563 201.292 369.242C203.256 368.921 205.266 369.394 206.882 370.555C219.072 379.325 237.152 384.555 255.282 384.555H255.582C273.403 384.655 290.798 379.542 305.664 369.941Z" fill="#F54A39"/>
<path d="M305.664 369.941L306.478 371.201L306.581 371.135L306.672 371.052L305.664 369.941ZM306.682 369.165L307.486 370.431L307.488 370.43L306.682 369.165ZM341.682 304.395L343.176 304.52L343.177 304.518L341.682 304.395ZM313.092 227.245L314.093 226.129L314.075 226.112L314.056 226.096L313.092 227.245ZM311.232 224.91L309.896 225.592L311.232 224.91ZM310.432 222.034L311.928 221.927V221.927L310.432 222.034ZM312.325 216.497L313.442 217.498L312.325 216.497ZM314.719 214.714L315.357 216.071L315.357 216.071L314.719 214.714ZM317.619 214.006L317.677 215.505L317.619 214.006ZM320.565 214.485L320.035 215.888V215.888L320.565 214.485ZM323.092 216.075L322.056 217.16L322.073 217.176L322.09 217.192L323.092 216.075ZM356.622 305.625L358.117 305.748L358.117 305.748L356.622 305.625ZM323.03 375.729L322.064 374.582L321.985 374.648L321.916 374.725L323.03 375.729ZM322.132 376.575L323.066 377.749L323.066 377.748L322.132 376.575ZM198.122 382.735L197.246 383.953L197.246 383.953L198.122 382.735ZM196.412 372.265L197.629 373.141L196.412 372.265ZM201.292 369.242L201.534 370.722L201.292 369.242ZM206.882 370.555L207.758 369.338L207.757 369.337L206.882 370.555ZM255.582 384.555L255.59 383.055H255.582V384.555ZM306.672 371.052C306.924 370.823 307.196 370.616 307.486 370.431L305.877 367.899C305.442 368.176 305.034 368.488 304.656 368.83L306.672 371.052ZM307.488 370.43C327.559 357.644 340.807 332.955 343.176 304.52L340.187 304.271C337.876 331.996 324.984 355.727 305.876 367.9L307.488 370.43ZM343.177 304.518C345.721 273.625 335.151 245.027 314.093 226.129L312.09 228.362C332.372 246.564 342.663 274.206 340.187 304.272L343.177 304.518ZM314.056 226.096C313.44 225.579 312.934 224.944 312.568 224.228L309.896 225.592C310.445 226.666 311.203 227.619 312.127 228.394L314.056 226.096ZM312.568 224.228C312.203 223.512 311.985 222.729 311.928 221.927L308.935 222.141C309.021 223.344 309.348 224.517 309.896 225.592L312.568 224.228ZM311.928 221.927C311.87 221.125 311.975 220.32 312.235 219.559L309.397 218.588C309.006 219.729 308.849 220.937 308.935 222.141L311.928 221.927ZM312.235 219.559C312.495 218.798 312.906 218.097 313.442 217.498L311.207 215.497C310.403 216.396 309.787 217.447 309.397 218.588L312.235 219.559ZM313.442 217.498C313.979 216.899 314.63 216.414 315.357 216.071L314.08 213.357C312.989 213.87 312.012 214.598 311.207 215.497L313.442 217.498ZM315.357 216.071C316.085 215.729 316.874 215.536 317.677 215.505L317.56 212.507C316.355 212.554 315.171 212.843 314.08 213.357L315.357 216.071ZM317.677 215.505C318.481 215.473 319.283 215.603 320.035 215.888L321.096 213.082C319.968 212.655 318.765 212.46 317.56 212.507L317.677 215.505ZM320.035 215.888C320.787 216.172 321.474 216.605 322.056 217.16L324.127 214.99C323.255 214.157 322.224 213.508 321.096 213.082L320.035 215.888ZM322.09 217.192C345.907 238.559 357.982 270.723 355.127 305.503L358.117 305.748C361.041 270.127 348.676 237.012 324.093 214.959L322.09 217.192ZM355.127 305.502C352.793 333.893 340.599 358.952 322.064 374.582L323.997 376.875C343.234 360.655 355.728 334.81 358.117 305.748L355.127 305.502ZM321.916 374.725C321.696 374.969 321.456 375.195 321.197 375.402L323.066 377.748C323.456 377.438 323.816 377.098 324.145 376.732L321.916 374.725ZM321.197 375.402C301.345 391.214 277.526 398.025 255.012 398.025V401.025C278.117 401.025 302.618 394.036 323.066 377.749L321.197 375.402ZM255.012 398.025C233.557 398.025 213.375 391.848 198.997 381.517L197.246 383.953C212.208 394.703 233.026 401.025 255.012 401.025V398.025ZM198.997 381.517C197.705 380.588 196.835 379.183 196.579 377.613L193.618 378.096C194.003 380.452 195.308 382.559 197.246 383.953L198.997 381.517ZM196.579 377.613C196.322 376.042 196.7 374.433 197.629 373.141L195.194 371.389C193.8 373.328 193.233 375.74 193.618 378.096L196.579 377.613ZM197.629 373.141C198.559 371.849 199.963 370.979 201.534 370.722L201.051 367.761C198.694 368.146 196.588 369.451 195.194 371.389L197.629 373.141ZM201.534 370.722C203.105 370.466 204.714 370.844 206.006 371.773L207.757 369.337C205.819 367.944 203.407 367.377 201.051 367.761L201.534 370.722ZM206.006 371.773C218.5 380.762 236.904 386.055 255.282 386.055V383.055C237.399 383.055 219.643 377.889 207.758 369.338L206.006 371.773ZM255.282 386.055H255.582V383.055H255.282V386.055ZM255.573 386.055C273.688 386.157 291.368 380.96 306.478 371.201L304.85 368.681C290.229 378.125 273.119 383.153 255.59 383.055L255.573 386.055Z" fill="black"/>
<path d="M215.951 305.001C221.441 305.001 225.891 300.55 225.891 295.061C225.891 289.571 221.441 285.121 215.951 285.121C210.461 285.121 206.011 289.571 206.011 295.061C206.011 300.55 210.461 305.001 215.951 305.001Z" fill="#3D2F90" stroke="black" stroke-width="3"/>
<path d="M144.021 453.641C141.899 453.692 139.844 452.899 138.307 451.435C136.77 449.972 135.878 447.957 135.826 445.836C135.774 443.714 136.568 441.659 138.031 440.122C139.495 438.585 141.509 437.692 143.631 437.641C168.401 436.411 206.101 418.211 216.981 402.241C217.557 401.338 218.308 400.56 219.19 399.952C220.072 399.345 221.067 398.921 222.116 398.706C223.165 398.49 224.246 398.487 225.296 398.697C226.346 398.907 227.343 399.326 228.228 399.929C229.114 400.531 229.869 401.306 230.449 402.205C231.03 403.105 231.424 404.113 231.607 405.167C231.791 406.222 231.762 407.303 231.52 408.347C231.279 409.39 230.83 410.374 230.201 411.241C216.651 431.141 174.201 452.141 144.421 453.631L144.021 453.641Z" fill="#465DBB" stroke="black" stroke-width="3"/>
<path d="M417.141 427.521H416.741C386.961 426.021 344.521 405.031 330.961 385.131C329.768 383.376 329.32 381.22 329.716 379.135C330.113 377.051 331.322 375.209 333.076 374.016C334.83 372.822 336.987 372.375 339.072 372.771C341.156 373.168 342.998 374.376 344.191 376.131C355.061 392.131 392.771 410.301 417.541 411.541C418.592 411.567 419.627 411.8 420.587 412.226C421.548 412.653 422.415 413.264 423.139 414.025C423.864 414.787 424.431 415.683 424.809 416.664C425.186 417.645 425.367 418.69 425.341 419.741C425.315 420.791 425.082 421.826 424.655 422.787C424.229 423.747 423.618 424.615 422.856 425.339C422.095 426.063 421.198 426.63 420.218 427.008C419.237 427.386 418.192 427.567 417.141 427.541V427.521Z" fill="#465DBB" stroke="black" stroke-width="3"/>
<path fill-rule="evenodd" clip-rule="evenodd" d="M231.799 494.453C233.083 495.389 234.632 495.892 236.221 495.891C237.785 495.889 239.309 495.4 240.581 494.491C262.457 478.834 276.081 462.696 283.253 443.545C297.259 458.559 316.092 468.259 342.411 474.311C342.965 474.437 343.532 474.501 344.101 474.501C345.943 474.499 347.72 473.819 349.094 472.591C350.467 471.362 351.34 469.672 351.546 467.841C351.753 466.01 351.278 464.168 350.213 462.664C349.148 461.161 347.567 460.103 345.771 459.691C317.195 453.126 299.53 442.507 287.001 424.29C286.813 423.838 286.579 423.403 286.302 422.991C285.191 421.34 283.469 420.198 281.516 419.816C279.563 419.434 277.538 419.844 275.886 420.955C274.667 421.775 273.725 422.928 273.162 424.262C272.927 424.786 272.753 425.336 272.643 425.902C272.599 426.126 272.566 426.353 272.543 426.58C268.061 448.417 255.844 465.12 231.851 482.291C230.558 483.215 229.593 484.527 229.094 486.035C228.595 487.544 228.588 489.172 229.074 490.685C229.56 492.198 230.514 493.518 231.799 494.453Z" fill="#F54A39"/>
<path d="M236.221 495.891L236.222 497.391H236.222L236.221 495.891ZM240.581 494.491L241.453 495.711L241.454 495.711L240.581 494.491ZM283.253 443.545L284.35 442.521L282.697 440.75L281.848 443.019L283.253 443.545ZM342.411 474.311L342.075 475.773L342.076 475.773L342.411 474.311ZM344.101 474.501L344.102 476.001H344.102L344.101 474.501ZM351.546 467.841L353.037 468.009L351.546 467.841ZM345.771 459.691L345.435 461.153L345.435 461.153L345.771 459.691ZM287.001 424.29L285.617 424.868L285.677 425.011L285.765 425.14L287.001 424.29ZM286.302 422.991L285.057 423.829V423.829L286.302 422.991ZM281.516 419.816L281.228 421.288L281.516 419.816ZM275.886 420.955L276.724 422.199V422.199L275.886 420.955ZM273.162 424.262L274.531 424.876L274.538 424.861L274.544 424.845L273.162 424.262ZM272.643 425.902L271.17 425.616L271.17 425.616L272.643 425.902ZM272.543 426.58L274.012 426.882L274.028 426.807L274.035 426.73L272.543 426.58ZM231.851 482.291L232.724 483.511L232.724 483.511L231.851 482.291ZM229.094 486.035L230.518 486.506L229.094 486.035ZM229.074 490.685L230.502 490.226L230.502 490.226L229.074 490.685ZM236.22 494.391C234.948 494.392 233.709 493.989 232.682 493.241L230.916 495.666C232.457 496.788 234.315 497.392 236.222 497.391L236.22 494.391ZM239.709 493.27C238.691 493.998 237.471 494.39 236.22 494.391L236.222 497.391C238.098 497.389 239.927 496.802 241.453 495.711L239.709 493.27ZM281.848 443.019C274.811 461.811 261.423 477.73 239.708 493.271L241.454 495.711C263.492 479.938 277.352 463.582 284.657 444.071L281.848 443.019ZM342.747 472.849C316.623 466.842 298.093 457.254 284.35 442.521L282.156 444.568C296.425 459.864 315.562 469.677 342.075 475.773L342.747 472.849ZM344.1 473.001C343.644 473.001 343.189 472.95 342.745 472.848L342.076 475.773C342.741 475.925 343.421 476.001 344.102 476.001L344.1 473.001ZM348.094 471.473C346.995 472.455 345.573 472.999 344.099 473.001L344.102 476.001C346.313 475.998 348.446 475.183 350.094 473.709L348.094 471.473ZM350.056 467.673C349.891 469.138 349.192 470.49 348.094 471.473L350.094 473.709C351.741 472.235 352.789 470.206 353.037 468.009L350.056 467.673ZM348.989 463.532C349.841 464.734 350.221 466.208 350.056 467.673L353.037 468.009C353.284 465.812 352.715 463.601 351.437 461.797L348.989 463.532ZM345.435 461.153C346.872 461.482 348.137 462.329 348.989 463.532L351.437 461.797C350.159 459.993 348.261 458.723 346.106 458.229L345.435 461.153ZM285.765 425.14C298.569 443.757 316.617 454.532 345.435 461.153L346.107 458.229C317.774 451.719 300.491 441.257 288.237 423.44L285.765 425.14ZM285.057 423.829C285.279 424.158 285.466 424.506 285.617 424.868L288.385 423.712C288.159 423.17 287.879 422.648 287.546 422.154L285.057 423.829ZM281.228 421.288C282.791 421.593 284.168 422.507 285.057 423.829L287.546 422.154C286.213 420.172 284.147 418.802 281.804 418.344L281.228 421.288ZM276.724 422.199C278.045 421.31 279.665 420.982 281.228 421.288L281.804 418.344C279.46 417.885 277.03 418.377 275.049 419.71L276.724 422.199ZM274.544 424.845C274.995 423.778 275.748 422.856 276.724 422.199L275.049 419.71C273.586 420.695 272.456 422.078 271.78 423.679L274.544 424.845ZM274.115 426.188C274.203 425.735 274.343 425.295 274.531 424.876L271.794 423.648C271.512 424.276 271.302 424.936 271.17 425.616L274.115 426.188ZM274.035 426.73C274.054 426.549 274.08 426.368 274.115 426.188L271.17 425.616C271.118 425.885 271.078 426.157 271.05 426.43L274.035 426.73ZM232.724 483.511C256.922 466.193 269.432 449.197 274.012 426.882L271.074 426.278C266.689 447.638 254.767 464.047 230.978 481.071L232.724 483.511ZM230.518 486.506C230.917 485.299 231.69 484.25 232.724 483.511L230.978 481.071C229.427 482.18 228.269 483.754 227.67 485.564L230.518 486.506ZM230.502 490.226C230.113 489.016 230.119 487.713 230.518 486.506L227.67 485.564C227.071 487.375 227.062 489.329 227.646 491.144L230.502 490.226ZM232.682 493.241C231.654 492.492 230.891 491.437 230.502 490.226L227.646 491.144C228.229 492.96 229.374 494.543 230.916 495.666L232.682 493.241Z" fill="black"/>
<path d="M280.881 475.891C273.066 475.861 265.357 474.081 258.321 470.681C256.525 469.823 255.144 468.287 254.481 466.41C253.818 464.534 253.928 462.471 254.786 460.676C255.644 458.88 257.18 457.499 259.056 456.836C260.933 456.173 262.995 456.283 264.791 457.141C279.011 463.941 295.151 461.211 306.891 449.991C307.607 449.31 308.449 448.778 309.371 448.423C310.292 448.069 311.275 447.899 312.262 447.924C313.249 447.949 314.221 448.168 315.124 448.569C316.026 448.97 316.841 449.545 317.521 450.261C318.201 450.976 318.734 451.819 319.088 452.741C319.443 453.662 319.613 454.644 319.588 455.632C319.562 456.619 319.343 457.591 318.942 458.493C318.541 459.396 317.967 460.21 317.251 460.891C306.881 470.781 293.961 475.891 280.881 475.891Z" fill="#E5B632" stroke="black" stroke-width="3"/>
<path d="M265.581 532.141C213.449 532.131 162.491 516.665 119.148 487.699C75.8041 458.733 42.0216 417.567 22.0704 369.404C2.11927 321.241 -3.1047 268.245 7.05887 217.113C17.2224 165.982 42.3173 119.012 79.171 82.1406C103.506 57.0353 132.591 37.0214 164.735 23.2643C196.878 9.50711 231.437 2.28149 266.4 2.00806C301.362 1.73463 336.03 8.41885 368.385 21.6716C400.739 34.9243 430.134 54.4808 454.859 79.2025C479.583 103.924 499.143 133.317 512.399 165.671C525.655 198.024 532.343 232.691 532.073 267.653C531.804 302.616 524.582 337.176 510.828 369.321C497.074 401.465 477.064 430.553 451.961 454.891C427.545 479.45 398.5 498.923 366.508 512.183C334.516 525.443 300.212 532.226 265.581 532.141ZM265.581 21.8906C129.591 21.8906 18.961 132.521 18.961 268.511C18.961 404.501 129.591 515.141 265.581 515.141C401.571 515.141 512.211 404.501 512.211 268.511C512.211 132.521 401.571 21.8906 265.581 21.8906Z" fill="#652699" stroke="black" stroke-width="3"/>
<path fill-rule="evenodd" clip-rule="evenodd" d="M279.081 430.754C277.786 430.891 276.406 430.891 274.961 430.891H274.961C258.101 430.891 232.521 423.361 218.601 411.021C217.163 409.688 216.304 407.845 216.208 405.887C216.113 403.929 216.787 402.011 218.088 400.544C219.389 399.077 221.212 398.178 223.168 398.039C225.124 397.9 227.056 398.533 228.551 399.801C241.242 411.048 266.071 416.757 277.738 415.812C309.785 411.291 324.399 387.675 330.018 378.594L330.101 378.461C330.561 377.711 330.951 377.081 331.281 376.571C331.806 375.726 332.495 374.995 333.306 374.419C334.117 373.843 335.034 373.434 336.004 373.216C336.975 372.998 337.979 372.975 338.958 373.149C339.938 373.322 340.873 373.689 341.709 374.228C342.545 374.766 343.266 375.466 343.829 376.285C344.393 377.105 344.788 378.029 344.991 379.002C345.194 379.976 345.201 380.98 345.012 381.957C344.823 382.934 344.442 383.863 343.891 384.691C343.688 385.002 343.454 385.388 343.195 385.812C343.097 385.973 342.996 386.14 342.891 386.311L342.884 386.322C336.957 395.964 318.945 425.263 279.591 430.701C279.422 430.724 279.251 430.742 279.081 430.754Z" fill="#3D2F90"/>
<path d="M279.081 430.754L278.978 429.257L278.951 429.259L278.923 429.262L279.081 430.754ZM218.601 411.021L217.581 412.121L217.593 412.132L217.606 412.143L218.601 411.021ZM216.208 405.887L217.707 405.814L216.208 405.887ZM218.088 400.544L219.21 401.539H219.21L218.088 400.544ZM228.551 399.801L229.546 398.678L229.534 398.667L229.521 398.657L228.551 399.801ZM277.738 415.812L277.859 417.307L277.903 417.303L277.947 417.297L277.738 415.812ZM330.018 378.594L328.743 377.805L328.743 377.805L330.018 378.594ZM330.101 378.461L331.376 379.25L331.38 379.245L330.101 378.461ZM331.281 376.571L332.54 377.386L332.547 377.374L332.554 377.363L331.281 376.571ZM333.306 374.419L334.174 375.642L334.174 375.642L333.306 374.419ZM336.004 373.216L336.333 374.679V374.679L336.004 373.216ZM338.958 373.149L339.22 371.672V371.672L338.958 373.149ZM341.709 374.228L342.521 372.967V372.967L341.709 374.228ZM343.829 376.285L345.066 375.436L345.066 375.436L343.829 376.285ZM345.012 381.957L346.485 382.242V382.242L345.012 381.957ZM343.891 384.691L342.642 383.859L342.638 383.866L342.634 383.872L343.891 384.691ZM343.195 385.812L341.914 385.032L341.914 385.032L343.195 385.812ZM342.891 386.311L344.169 387.096L344.17 387.095L342.891 386.311ZM342.884 386.322L344.162 387.108L344.162 387.108L342.884 386.322ZM279.591 430.701L279.386 429.215L279.383 429.215L279.591 430.701ZM278.923 429.262C277.721 429.389 276.424 429.391 274.961 429.391V432.391C276.389 432.391 277.85 432.392 279.238 432.246L278.923 429.262ZM274.961 429.391H274.961V432.391H274.961V429.391ZM274.961 429.391C266.725 429.391 256.278 427.546 246.154 424.161C236.023 420.773 226.352 415.888 219.596 409.898L217.606 412.143C224.769 418.494 234.849 423.543 245.203 427.006C255.564 430.471 266.337 432.391 274.961 432.391V429.391ZM219.621 409.921C218.47 408.854 217.783 407.38 217.707 405.814L214.71 405.96C214.825 408.31 215.856 410.521 217.581 412.121L219.621 409.921ZM217.707 405.814C217.63 404.247 218.17 402.713 219.21 401.539L216.966 399.549C215.405 401.309 214.595 403.61 214.71 405.96L217.707 405.814ZM219.21 401.539C220.251 400.366 221.71 399.647 223.274 399.535L223.062 396.543C220.715 396.71 218.527 397.789 216.966 399.549L219.21 401.539ZM223.274 399.535C224.839 399.424 226.385 399.93 227.581 400.945L229.521 398.657C227.727 397.135 225.408 396.376 223.062 396.543L223.274 399.535ZM227.556 400.923C234.135 406.754 243.752 411.073 253.106 413.818C262.458 416.562 271.777 417.8 277.859 417.307L277.616 414.317C272.031 414.769 263.103 413.625 253.951 410.939C244.801 408.254 235.658 404.095 229.546 398.678L227.556 400.923ZM277.947 417.297C310.724 412.674 325.656 388.494 331.294 379.383L328.743 377.805C323.142 386.856 308.846 409.909 277.528 414.327L277.947 417.297ZM331.294 379.383L331.376 379.25L328.825 377.671L328.743 377.805L331.294 379.383ZM331.38 379.245C331.84 378.495 332.221 377.879 332.54 377.386L330.022 375.756C329.681 376.283 329.282 376.927 328.822 377.676L331.38 379.245ZM332.554 377.363C332.975 376.688 333.525 376.102 334.174 375.642L332.437 373.196C331.464 373.887 330.638 374.765 330.007 375.778L332.554 377.363ZM334.174 375.642C334.823 375.181 335.557 374.854 336.333 374.679L335.676 371.752C334.511 372.014 333.41 372.505 332.437 373.196L334.174 375.642ZM336.333 374.679C337.11 374.505 337.913 374.487 338.696 374.626L339.22 371.672C338.045 371.463 336.84 371.491 335.676 371.752L336.333 374.679ZM338.696 374.626C339.48 374.765 340.228 375.058 340.897 375.489L342.521 372.967C341.518 372.32 340.396 371.88 339.22 371.672L338.696 374.626ZM340.897 375.489C341.566 375.92 342.143 376.479 342.593 377.135L345.066 375.436C344.39 374.452 343.525 373.613 342.521 372.967L340.897 375.489ZM342.593 377.135C343.044 377.791 343.36 378.53 343.522 379.309L346.459 378.696C346.215 377.528 345.742 376.419 345.066 375.436L342.593 377.135ZM343.522 379.309C343.685 380.088 343.69 380.891 343.539 381.672L346.485 382.242C346.711 381.07 346.703 379.865 346.459 378.696L343.522 379.309ZM343.539 381.672C343.388 382.454 343.084 383.197 342.642 383.859L345.139 385.522C345.801 384.529 346.258 383.414 346.485 382.242L343.539 381.672ZM342.634 383.872C342.416 384.207 342.168 384.614 341.914 385.032L344.477 386.592C344.739 386.161 344.96 385.798 345.148 385.509L342.634 383.872ZM341.914 385.032C341.816 385.194 341.715 385.358 341.612 385.527L344.17 387.095C344.276 386.922 344.379 386.753 344.477 386.592L341.914 385.032ZM341.613 385.525L341.606 385.537L344.162 387.108L344.169 387.096L341.613 385.525ZM341.606 385.537C335.701 395.142 318.009 423.878 279.386 429.215L279.796 432.187C319.881 426.648 338.212 396.786 344.162 387.108L341.606 385.537ZM279.383 429.215C279.249 429.234 279.113 429.248 278.978 429.257L279.183 432.25C279.389 432.236 279.595 432.215 279.799 432.186L279.383 429.215Z" fill="black"/>
<path fill-rule="evenodd" clip-rule="evenodd" d="M189.641 158.891C196.5 160.487 203.529 161.243 210.571 161.141C213.661 161.141 216.888 161.023 220.197 160.77C221.572 163.609 222.695 167.889 222.611 175.071C222.592 176.794 223.258 178.454 224.461 179.687C225.665 180.921 227.308 181.627 229.031 181.651H229.111C230.823 181.651 232.466 180.976 233.683 179.772C234.9 178.568 235.593 176.932 235.611 175.221C235.695 168.241 234.789 163.017 233.493 159.041C243.934 157.1 254.455 153.694 263.481 148.331C264.404 147.805 265.213 147.1 265.861 146.258C266.508 145.416 266.982 144.454 267.254 143.427C267.526 142.4 267.59 141.33 267.444 140.277C267.297 139.225 266.943 138.213 266.401 137.299C265.859 136.386 265.141 135.589 264.288 134.956C263.435 134.323 262.465 133.866 261.433 133.612C260.402 133.358 259.33 133.312 258.281 133.476C257.231 133.641 256.225 134.013 255.321 134.571C234.911 146.671 204.631 146.281 193.701 143.411C192.685 143.144 191.626 143.08 190.584 143.223C189.543 143.366 188.541 143.712 187.633 144.242C186.726 144.772 185.932 145.476 185.297 146.313C184.662 147.15 184.198 148.104 183.931 149.121C183.664 150.137 183.601 151.196 183.743 152.237C183.886 153.278 184.232 154.281 184.763 155.188C185.293 156.095 185.996 156.889 186.834 157.525C187.671 158.16 188.625 158.624 189.641 158.891Z" fill="#028F4D"/>
<path d="M210.571 161.141V159.641H210.56L210.549 159.641L210.571 161.141ZM189.641 158.891L189.26 160.341L189.281 160.347L189.301 160.352L189.641 158.891ZM220.197 160.77L221.548 160.116L221.102 159.196L220.083 159.274L220.197 160.77ZM222.611 175.071L221.111 175.053L221.111 175.054L222.611 175.071ZM224.461 179.687L225.535 178.64H225.535L224.461 179.687ZM229.031 181.651L229.01 183.15L229.021 183.151H229.031V181.651ZM229.111 181.651L229.111 180.151H229.111V181.651ZM233.683 179.772L234.738 180.838L234.738 180.838L233.683 179.772ZM235.611 175.221L234.111 175.203L234.111 175.204L235.611 175.221ZM233.493 159.041L233.219 157.566L231.537 157.879L232.067 159.505L233.493 159.041ZM263.481 148.331L262.738 147.027L262.726 147.034L262.715 147.041L263.481 148.331ZM265.861 146.258L264.672 145.344L265.861 146.258ZM264.288 134.956L263.394 136.16L264.288 134.956ZM261.433 133.612L261.792 132.155L261.433 133.612ZM258.281 133.476L258.513 134.958L258.281 133.476ZM255.321 134.571L256.086 135.861L256.097 135.854L256.108 135.847L255.321 134.571ZM193.701 143.411L194.082 141.96L194.082 141.96L193.701 143.411ZM185.297 146.313L186.492 147.22L185.297 146.313ZM183.931 149.121L182.48 148.74L183.931 149.121ZM183.743 152.237L182.257 152.441L183.743 152.237ZM186.834 157.525L185.927 158.719L185.927 158.719L186.834 157.525ZM210.549 159.641C203.629 159.741 196.722 158.999 189.981 157.43L189.301 160.352C196.279 161.976 203.429 162.744 210.593 162.64L210.549 159.641ZM220.083 159.274C216.812 159.524 213.623 159.641 210.571 159.641V162.641C213.699 162.641 216.964 162.521 220.312 162.265L220.083 159.274ZM224.111 175.088C224.197 167.743 223.049 163.219 221.548 160.116L218.847 161.423C220.094 163.999 221.193 168.035 221.111 175.053L224.111 175.088ZM225.535 178.64C224.609 177.691 224.097 176.413 224.111 175.087L221.111 175.054C221.088 177.175 221.907 179.217 223.387 180.735L225.535 178.64ZM229.052 180.151C227.726 180.133 226.461 179.589 225.535 178.64L223.387 180.735C224.868 182.253 226.89 183.121 229.01 183.15L229.052 180.151ZM229.111 180.151H229.031V183.151H229.111V180.151ZM232.628 178.705C231.692 179.631 230.428 180.151 229.111 180.151L229.111 183.151C231.218 183.151 233.24 182.32 234.738 180.838L232.628 178.705ZM234.111 175.204C234.097 176.521 233.564 177.779 232.628 178.705L234.738 180.838C236.235 179.356 237.088 177.344 237.111 175.237L234.111 175.204ZM232.067 159.505C233.305 163.305 234.193 168.363 234.111 175.203L237.111 175.239C237.196 168.118 236.273 162.729 234.92 158.576L232.067 159.505ZM262.715 147.041C253.88 152.29 243.539 155.648 233.219 157.566L233.768 160.516C244.329 158.553 255.029 155.098 264.247 149.62L262.715 147.041ZM264.672 145.344C264.145 146.028 263.488 146.6 262.738 147.027L264.224 149.634C265.32 149.009 266.28 148.173 267.049 147.173L264.672 145.344ZM265.804 143.043C265.583 143.878 265.198 144.66 264.672 145.344L267.049 147.173C267.819 146.173 268.381 145.03 268.704 143.811L265.804 143.043ZM265.958 140.484C266.077 141.339 266.025 142.209 265.804 143.043L268.704 143.811C269.027 142.592 269.103 141.32 268.93 140.071L265.958 140.484ZM265.111 138.064C265.551 138.807 265.839 139.629 265.958 140.484L268.93 140.071C268.756 138.821 268.335 137.619 267.691 136.534L265.111 138.064ZM263.394 136.16C264.087 136.675 264.671 137.322 265.111 138.064L267.691 136.534C267.048 135.449 266.195 134.503 265.182 133.751L263.394 136.16ZM261.074 135.068C261.912 135.275 262.701 135.646 263.394 136.16L265.182 133.751C264.169 133 263.017 132.457 261.792 132.155L261.074 135.068ZM258.513 134.958C259.366 134.825 260.236 134.862 261.074 135.068L261.792 132.155C260.567 131.854 259.294 131.799 258.048 131.995L258.513 134.958ZM256.108 135.847C256.843 135.394 257.66 135.092 258.513 134.958L258.048 131.995C256.802 132.19 255.607 132.632 254.534 133.294L256.108 135.847ZM193.32 144.861C199.006 146.355 209.496 147.164 221.093 146.098C232.703 145.031 245.619 142.066 256.086 135.861L254.556 133.28C244.613 139.175 232.184 142.066 220.819 143.111C209.441 144.157 199.326 143.337 194.082 141.96L193.32 144.861ZM190.788 144.709C191.634 144.593 192.495 144.645 193.32 144.861L194.082 141.96C192.875 141.643 191.617 141.567 190.381 141.737L190.788 144.709ZM188.39 145.537C189.127 145.106 189.942 144.825 190.788 144.709L190.381 141.737C189.145 141.906 187.954 142.317 186.877 142.947L188.39 145.537ZM186.492 147.22C187.008 146.54 187.653 145.968 188.39 145.537L186.877 142.947C185.799 143.577 184.856 144.412 184.102 145.406L186.492 147.22ZM185.382 149.501C185.599 148.675 185.976 147.9 186.492 147.22L184.102 145.406C183.348 146.4 182.797 147.533 182.48 148.74L185.382 149.501ZM185.229 152.033C185.113 151.187 185.165 150.327 185.382 149.501L182.48 148.74C182.163 149.947 182.088 151.204 182.257 152.441L185.229 152.033ZM186.058 154.431C185.627 153.694 185.345 152.879 185.229 152.033L182.257 152.441C182.427 153.677 182.838 154.868 183.467 155.945L186.058 154.431ZM187.74 156.33C187.06 155.814 186.488 155.168 186.058 154.431L183.467 155.945C184.097 157.022 184.933 157.965 185.927 158.719L187.74 156.33ZM190.022 157.44C189.196 157.223 188.42 156.846 187.74 156.33L185.927 158.719C186.921 159.474 188.053 160.025 189.26 160.341L190.022 157.44Z" fill="black"/>
</svg>
